<svg xmlns="http://www.w3.org/2000/svg" version="1.1" xmlns:xlink="http://www.w3.org/1999/xlink" width="1500" height="1500" viewBox="0 0 1500 1500"><rect width="1500" height="1500" x="0" y="0" id="background" stroke="transparent" fill="#ffffff"></rect><svg xml:space="preserve" width="1000" height="1000" data-version="2" data-id="lg_p79l1OBzE1bE5uPBYr" viewBox="0 0 565 133" x="250" y="250"><rect width="100%" height="100%" fill="transparent"></rect><path fill="#8d021f" d="M151.58 100.04v-65h9.3v65Zm-7.9 0-.6-3.2q2.3-1.1 4.85-1.95 2.55-.85 5.05-1.55l.1 6.7Zm7.3 0 7.5-6.6 32.1-1.3 1.7 7.9Zm41.3 0-7.8-4 3.4-16.3 5.6.4q.1 3.1-.05 6.8-.15 3.7-.4 7.2t-.75 5.9m-34.6-58.7-13.8-1.6.1-4.7h14Zm1.8.4-.1-6.7h9.4l.6 3.2q-2.2 1-4.8 1.85-2.6.85-5.1 1.65"></path><rect width="50.47" height="65" x="-25.23" y="-32.5" fill="none" rx="0" ry="0" transform="translate(168.81 68.04)"></rect><path fill="#8d021f" d="m198.48 100.04-.6-3.2q2.3-1.1 4.85-1.95 2.55-.85 5.05-1.55l.1 6.7Zm46.6 0-7.5-4 3.4-14.3 5.3.4q.1 2.6-.05 6-.15 3.4-.45 6.55-.3 3.15-.7 5.35m-36.2-59.6-9.6-.6.1-4.8h9.3Zm29.8 11.1-1.6-12 8-4.5q.2 1.6.15 4.35-.05 2.75-.3 5.9-.25 3.15-.85 6.25Zm-32.3 48.5v-65h9.3v65Zm32.2-28.4-24-1v-5.9l24-1.8Zm4.8-28.9-30.1-2.1-7.5-5.6h39.3Zm-37.6 57.3 7.5-6.4 30.1-1.3 1.7 7.7Z"></path><rect width="48.47" height="65" x="-24.23" y="-32.5" fill="none" rx="0" ry="0" transform="translate(222.62 68.04)"></rect><path fill="#8d021f" d="m252.88 100.04 26.3-63.7 5.7 2.5-24 61.2Zm50.8 0-25.5-64.7 7.9-2.7 27.7 67.4Zm-36.3-20.1v-6.1h29.1v6.1Zm-19.6 20.1-.6-3.2q2.3-1.1 4.85-1.95 2.55-.85 5.05-1.55l.1 6.7Zm11.8 0 .3-6.3 13.8 1.6-.1 4.7Zm32.3 0-.6-3.2q2.3-1.1 4.85-1.95 2.55-.85 5.05-1.55l5.3 6.7Zm12.8 0 .3-6.3 13.8 1.6-.1 4.7Z"></path><rect width="71.6" height="67.4" x="-35.8" y="-33.7" fill="none" rx="0" ry="0" transform="translate(283.48 66.84)"></rect><path fill="#8d021f" d="M355.18 102.04q-7.2.4-12.9-1.25t-9.9-4.85q-4.2-3.2-7-7.5t-4.2-9.3q-1.4-5-1.4-10.2 0-6.8 2.1-13.2 2.1-6.4 6.35-11.5t10.75-8.15q6.5-3.05 15.2-3.05 7.4 0 12.55 2.15t7.45 3.95l-2.8 9.3-2.1-1.5q-2.1-1.5-5.9-3.35-3.8-1.85-9.05-2.95-5.25-1.1-11.55-.3-4.5 2.5-7.35 6.85-2.85 4.35-4.15 9.8-1.3 5.45-1.3 11.15 0 6.7 2.5 12.8 2.5 6.1 7.55 9.9 5.05 3.8 12.45 3.8 3.3 0 6.6-.6t6.2-1.6q2.9-1 5-2l4.4 2.5Zm12.5-24.1q-2.8-.8-6.45-1.9-3.65-1.1-6.85-2.6l.6-3.5h11.2Zm-2.3 16.2v-24.2h9.3v23Zm1.7-17.4-3.1-6.8h18.2l.1 4.9Zm-.5-23.1-.9-10 8.5-4.5q.2 1.6.1 3.9t-.5 4.95q-.4 2.65-1.3 5.65Z"></path><rect width="62.5" height="69.22" x="-31.25" y="-34.61" fill="none" rx="0" ry="0" transform="translate(351.53 68.15)"></rect><path fill="#8d021f" d="M420.68 101.84q-8.2 0-14.45-3.45t-9.75-10.15q-3.5-6.7-3.5-16.5v-36.7h9.3v37.7q0 6.9 2.2 11.7 2.2 4.8 6.45 7.35t10.15 2.55q2.9 0 5.15-.55 2.25-.55 4.35-1.45 3.3-2.3 5.05-7.25t1.75-12.35v-37.7h7.4v35.7q0 8.2-1.6 14.15-1.6 5.95-4.7 9.65t-7.6 5.5q-4.5 1.8-10.2 1.8m-21.6-60.5-13.8-1.6.1-4.7h14Zm1.8.4-.1-6.7h9.4l.6 3.2q-2.2 1-4.8 1.85-2.6.85-5.1 1.65m41.4-.4-13.8-1.6.1-4.7h14Zm1.1.4-.1-6.7h9.4l.6 3.2q-2.2 1-4.8 1.85-2.6.85-5.1 1.65"></path><rect width="68" height="66.8" x="-34" y="-33.4" fill="none" rx="0" ry="0" transform="translate(419.78 68.94)"></rect><path fill="#8d021f" d="m456.88 100.04-.6-3.2q2.3-1.1 4.85-1.95 2.55-.85 5.05-1.55l.1 6.7Zm46.6 0-7.5-4 3.4-14.3 5.3.4q.1 2.6-.05 6-.15 3.4-.45 6.55-.3 3.15-.7 5.35m-36.2-59.6-9.6-.6.1-4.8h9.3Zm29.8 11.1-1.6-12 8-4.5q.2 1.6.15 4.35-.05 2.75-.3 5.9-.25 3.15-.85 6.25Zm-32.3 48.5v-65h9.3v65Zm32.2-28.4-24-1v-5.9l24-1.8Zm4.8-28.9-30.1-2.1-7.5-5.6h39.3Zm-37.6 57.3 7.5-6.4 30.1-1.3 1.7 7.7Z"></path><rect width="48.47" height="65" x="-24.23" y="-32.5" fill="none" rx="0" ry="0" transform="translate(481.01 68.04)"></rect><path fill="#8d021f" d="M536.28 102.04q-3.2 0-7.3-.75t-7.8-2.3q-3.7-1.55-6-3.85l2.3-10.5q3.5 4.9 8 7.3 4.5 2.4 9.15 3.05 4.65.65 8.45.25 3-1.6 4.4-4.5 1.4-2.9 1.4-5.7 0-3.5-1.9-5.9-1.9-2.4-5.25-4.3t-7.85-4q-4.3-2.1-8.5-4.55-4.2-2.45-7-6.1-2.8-3.65-2.8-9.05 0-5.9 3.35-9.95 3.35-4.05 8.7-6.1t11.25-2.05q3.2 0 6.25.5t5.65 1.2q2.6.7 4.6 1.4l-5.1 9.8q-4.1-4.4-9.7-5.6-5.6-1.2-10.9-.4-2.4 1.4-3.6 3.95-1.2 2.55-1.2 5.15 0 3.3 1.95 5.55t5.3 4.1q3.35 1.85 7.65 3.85 4.7 2.2 8.95 4.75 4.25 2.55 6.95 6.2 2.7 3.65 2.7 9.35 0 6.1-3.15 10.4-3.15 4.3-8.15 6.55t-10.8 2.25m-12.8-6.9h-8.3q-.1-1.7-.1-4.5t.3-6.1q.3-3.3.8-6.3h5.4Zm25.5-42.1-1.6-15 8-1.9q.2 1.6.15 4.45-.05 2.85-.3 6.1-.25 3.25-.85 6.35Z"></path><rect width="43.3" height="69" x="-21.65" y="-34.5" fill="none" rx="0" ry="0" transform="translate(537.23 68.04)"></rect><path fill="#8d021f" d="M57.391 2.884a40.867 40.867 0 0 0-10.63-1.406c-3.22 0-6.352.377-9.368 1.102C19.238 6.828 5.62 23.186 5.62 42.615c0 9.993 4.785 22.246 8.7 29.64 5.395 9.889 22.695 40.516 27.814 49.623l4.656 8.193 4.48-8.092c.19-.204 21.084-37.47 28.06-49.607 4.163-7.294 8.6-20.186 8.6-29.758-.002-18.98-13.008-35.032-30.54-39.73m12.92 64.327c-1.203 2.131-2.829 4.986-4.683 8.265-.074.145-.161.289-.247.45-5.744 10.15-13.618 24.113-18.62 33.091-5.163-9.034-13.079-23.16-18.59-33.091a6.607 6.607 0 0 1-.246-.435 1774.45 1774.45 0 0 1-4.497-8.164c-3.713-6.86-7.526-17.199-7.526-24.712 0-13.413 8.718-24.898 20.753-29.102a30.429 30.429 0 0 1 10.121-1.725c3.858 0 7.613.725 11.123 2.104A30.81 30.81 0 0 1 68.5 20.836c5.783 5.89 9.004 13.488 9.004 21.78-.001 7.425-3.8 18.591-7.192 24.595"></path><path fill="#8d021f" d="M28.172 75.926h-.247v-.435c.074.145.158.29.247.435m37.456-.45v.45h-.247c.086-.16.173-.305.247-.45m-39.582-45.1a25.591 25.591 0 0 0-.986 1.55c-.267.463-.512.932-.747 1.402a24.995 24.995 0 0 1 1.733-2.953m33.309-7.582a25.188 25.188 0 0 0-2.553-1.288c.865.379 1.716.808 2.55 1.292a24.905 24.905 0 0 1 7.098 6.15c.383.483.75.978 1.093 1.482a25.227 25.227 0 0 1 3.717 19.566 24.666 24.666 0 0 1-.364 1.414c3.099-10.799-1.376-22.726-11.541-28.616m8.159 35.83a25.56 25.56 0 0 0 .975-1.534 24.98 24.98 0 0 0 1.374-2.763 25.107 25.107 0 0 1-2.349 4.297m-11.051 9.014c-6.344 2.65-13.702 2.678-20.274-.389a24.214 24.214 0 0 1-1.828-.94c-.054-.031-.11-.059-.164-.092a25.391 25.391 0 0 1-.833-.505c.275.173.547.347.828.51 10.453 6.053 23.449 3.719 31.217-4.92a24.948 24.948 0 0 1-7.294 5.57c-.544.276-1.092.532-1.652.766M23.138 52.872a25.166 25.166 0 0 1-.552-15.036 25.13 25.13 0 0 0 5.352 23.246 25.046 25.046 0 0 1-4.188-6.628 24.063 24.063 0 0 1-.612-1.582m27.243-33.187c.24.035.477.075.72.116-.243-.04-.48-.081-.72-.116m-1.593-.184c.258.02.513.055.77.083-.257-.03-.514-.063-.77-.083m3.244.481c.203.044.403.086.607.134-.204-.05-.404-.09-.607-.134m-20.384 4.523c-.285.213-.566.432-.842.66l.288-.238c.182-.143.368-.283.554-.422"></path><path fill="#8d021f" d="M44.372 25.074c-2.638 3.68-5.533 7.724-10.026 10.887a80.974 80.974 0 0 0 2.155 4.929c8.786-6.331 19.468-11.469 29.948-11.942a24.863 24.863 0 0 0-7.099-6.15 25.49 25.49 0 0 0-2.549-1.292l-.015-.005a25.947 25.947 0 0 0-2.618-.97l-.003-.002a25.09 25.09 0 0 0-1.529-.415c-.204-.048-.404-.09-.607-.133-.312-.064-.62-.128-.931-.181-.242-.041-.48-.082-.72-.116a26.588 26.588 0 0 0-.823-.102c-.257-.027-.513-.062-.77-.083l-.007-.001c-1.536 1.578-2.931 3.518-4.406 5.576m12.091 42.563a39.195 39.195 0 0 1-2.783-1.927c-5.635-4.28-10.477-10.189-14.327-16.42-3.92 3.056-4.763 7.644-4.331 12.15.191 1.996.63 3.975 1.167 5.808 6.572 3.067 13.93 3.038 20.274.389"></path><path fill="#8d021f" d="M37.328 42.164c-.051.034-.102.074-.151.108a81.635 81.635 0 0 0 2.646 4.862c7.432-4.35 21.378-.187 31.434 2.865a25.222 25.222 0 0 0-3.717-19.566c-10.49.148-21.33 5.32-30.212 11.731"></path><path fill="#8d021f" d="M40.608 48.435c3.764 6.112 8.494 11.898 13.99 16.07a36.953 36.953 0 0 0 3.517 2.37 24.923 24.923 0 0 0 7.294-5.57l.167-.19c.268-.302.526-.614.78-.933.072-.091.148-.181.219-.273.298-.387.591-.781.871-1.189.025-.032.045-.064.067-.097a25.75 25.75 0 0 0 .97-1.537c.522-.902.982-1.826 1.379-2.76.004-.005.004-.011.007-.017.184-.438.356-.88.514-1.324.03-.078.056-.164.087-.242a21.688 21.688 0 0 0 .409-1.276c-9.789-2.973-23.4-7.05-30.271-3.032m-17.47 4.437c3.198-3.615 7.352-7.5 12.117-11.067a88.004 88.004 0 0 1-1.044-2.254 75.93 75.93 0 0 1-1.154-2.733c-4.682 2.938-8.177 3.318-10.84 2.574a25.156 25.156 0 0 0 .921 13.48m9.356-17.495c-1.271-3.384-2.178-6.57-2.694-9.35l-.016.017a25.008 25.008 0 0 0-1.327 1.315 24.932 24.932 0 0 0-2.301 2.857l-.11.16a24.995 24.995 0 0 0-1.733 2.952l-.058.118c-.213.433-.412.87-.599 1.31l-.056.138a24.308 24.308 0 0 0-.607 1.627 24.492 24.492 0 0 0-.387 1.241c-.004.019-.013.04-.019.06 2.41.677 5.595.317 9.907-2.445m1.288-.876c4.12-2.992 6.863-6.822 9.362-10.312 1.222-1.704 2.39-3.328 3.635-4.76-.699.002-1.395.034-2.09.092l-.056.003a25.296 25.296 0 0 0-9.89 2.983l-.18.099a24.768 24.768 0 0 0-2.914 1.9c-.186.138-.371.278-.554.421.454 2.742 1.365 6.028 2.687 9.574m.579 31.806a31.289 31.289 0 0 1-.852-4.723c-.48-5.027.502-10.168 5.053-13.602a83.936 83.936 0 0 1-2.625-4.794c-4.865 3.666-9.06 7.64-12.187 11.266a25.01 25.01 0 0 0 4.188 6.628c.02.022.038.044.06.064a24.521 24.521 0 0 0 2.155 2.15l.207.182c.374.323.754.64 1.151.941l.179.136a28.726 28.726 0 0 0 .903.647c.232.16.466.316.703.47l.068.04c.273.173.55.343.833.505.053.034.11.06.164.09"></path></svg></svg>